<svg version="1.1" id="Layer_1" xmlns="http://www.w3.org/2000/svg" xmlns:xlink="http://www.w3.org/1999/xlink" x="0px" y="0px"
	 width="100%" viewBox="0 0 224 224" enable-background="new 0 0 224 224" xml:space="preserve">
<path fill="#000000" opacity="1.000000" stroke="none" 
	d="
M56.959293,84.965958 
	C57.859505,84.552391 58.850346,84.267059 59.645641,83.705032 
	C66.186615,79.082588 65.908607,79.314674 71.558304,85.404678 
	C79.083717,93.516586 86.789818,101.501122 95.605614,108.787079 
	C96.427902,106.085365 93.928864,105.103836 94.080132,103.232422 
	C94.260468,102.446182 94.937294,102.066246 95.559837,102.170708 
	C101.952454,103.243423 106.325012,100.127228 110.238930,95.554901 
	C116.220192,88.567436 125.193817,87.914642 133.205444,85.660995 
	C139.874664,83.784950 146.118561,81.313332 151.901871,77.662544 
	C155.029190,75.688385 158.009125,74.908142 161.783478,75.595688 
	C166.829361,76.514862 172.016403,76.705727 177.153061,77.061073 
	C179.831085,77.246330 180.746796,79.061806 181.639648,81.113220 
	C182.546661,83.197189 181.145401,83.894516 179.830902,85.083359 
	C177.252243,87.415527 177.719299,91.477547 175.145706,94.002502 
	C179.159531,92.985771 178.887741,85.098618 184.912308,88.338837 
	C186.506470,86.763763 185.271317,85.292511 185.199463,84.006973 
	C187.092453,83.126053 195.197556,91.554535 196.564499,95.680977 
	C194.868103,95.503998 193.287796,95.230392 191.703613,95.205772 
	C190.245605,95.183121 188.714340,94.815819 187.312302,95.650589 
	C186.706787,97.027237 188.923355,97.371017 188.225296,99.112625 
	C183.131073,100.521736 183.581772,106.608421 180.179184,109.852943 
	C179.908646,110.110916 179.901459,110.868896 180.045822,111.303505 
	C181.481094,115.624023 185.010941,118.749969 186.534622,123.168167 
	C184.256790,116.929543 187.936707,110.866684 186.494690,104.818802 
	C185.915466,102.389542 188.048660,102.206848 189.720459,102.181808 
	C192.250366,102.143906 194.615372,101.733246 197.335678,98.955353 
	C197.614487,104.308273 194.204147,107.804581 195.142471,112.192230 
	C196.026749,116.327187 198.338409,120.175430 198.216858,124.981651 
	C195.703568,124.215965 194.382965,120.698769 191.423431,122.918465 
	C191.959854,124.402702 194.916031,124.075859 194.178284,126.377350 
	C193.578796,128.247543 191.745743,128.625443 190.165558,128.920456 
	C185.712219,129.751892 181.330078,129.615005 177.355209,126.845871 
	C182.375961,133.410538 182.431274,134.054474 173.670670,134.806946 
	C166.016617,135.464371 160.720474,139.662292 154.563690,143.268524 
	C149.183395,146.419952 144.700806,150.783997 138.996826,153.446716 
	C130.498840,157.413742 117.984886,155.839355 110.916245,149.591385 
	C108.491348,147.448013 107.553413,145.277313 108.395149,142.160202 
	C109.763138,137.094299 108.334686,132.569992 105.119362,128.641113 
	C102.488670,125.426590 98.880142,124.440140 94.962334,125.386971 
	C93.568230,122.651703 96.820152,121.291084 95.962029,118.607735 
	C89.678917,121.968201 85.467758,127.559410 80.364777,132.054932 
	C77.629860,134.464279 75.192703,137.208420 72.511856,139.683029 
	C67.960518,143.884216 60.260361,142.359451 56.534061,137.418701 
	C52.497097,132.066055 51.994560,127.678291 56.735111,122.416084 
	C59.288948,119.581207 59.880199,115.929420 55.264042,113.275200 
	C50.865143,110.745918 48.943142,105.655830 44.740627,102.087746 
	C47.082119,98.676132 49.371185,95.340904 51.746162,91.880501 
	C55.592800,93.035599 57.171631,96.231934 59.854931,100.105301 
	C59.374863,94.112831 55.312855,92.448967 53.040127,89.457214 
	C47.491047,92.035698 43.561275,96.685852 38.253090,99.694794 
	C36.340378,96.250862 37.074314,94.493774 39.974346,92.777687 
	C45.680737,89.400925 50.708359,85.061188 55.343906,80.326927 
	C61.399673,74.142204 69.350060,73.117447 73.535294,81.635735 
	C72.078262,83.035767 71.104614,81.564064 70.167107,80.925957 
	C63.734432,76.547638 60.944206,77.254578 56.871353,84.821213 
	C54.755989,87.046272 56.508003,88.021988 57.488071,88.913528 
	C63.331100,94.228821 70.243309,98.450470 74.360558,105.528130 
	C74.408356,105.610291 74.876831,105.447746 75.397705,105.355255 
	C73.530266,103.315552 72.154121,101.228783 71.453514,98.522980 
	C70.751877,95.813240 68.899261,93.812126 65.630974,93.082253 
	C61.365479,92.129684 58.468769,89.151054 56.959293,84.965958 
M154.898727,100.986938 
	C152.537857,98.099060 154.342499,97.147491 156.953384,96.876442 
	C159.482300,96.613899 162.107391,97.291176 164.587357,95.866623 
	C161.567902,95.259239 158.544754,95.253578 155.521622,95.261261 
	C153.564438,95.266235 152.614212,96.388206 151.942963,98.140495 
	C151.186691,100.114700 151.853806,101.351128 153.493210,102.297554 
	C155.874817,103.672447 156.262070,105.775955 155.966278,108.299873 
	C155.637146,111.108238 155.285690,113.952263 155.392990,116.763626 
	C155.521133,120.121223 156.029953,123.345802 152.310883,125.345657 
	C150.992203,126.054756 151.199387,127.684700 151.456558,129.006058 
	C151.784210,130.689484 153.177139,130.799072 154.547607,130.899017 
	C158.198456,131.165298 161.844437,131.518768 165.499100,131.705139 
	C167.802124,131.822601 170.501907,132.216660 170.769608,128.768631 
	C171.022583,125.510124 169.198990,124.073936 166.125763,123.771721 
	C165.047592,129.485275 162.187317,130.611526 154.175491,128.500885 
	C158.641235,119.662895 161.303452,110.676788 154.898727,100.986938 
M82.136803,117.569946 
	C77.831276,120.205750 75.948257,117.591736 75.080338,113.964409 
	C74.113029,109.921761 71.617256,107.582497 67.305222,105.240204 
	C67.722031,114.090134 65.120346,122.382988 71.252838,129.931335 
	C72.468552,125.872490 67.862358,123.729485 68.744484,120.047638 
	C69.553413,116.671310 67.777916,112.933266 69.732956,109.469681 
	C73.503639,110.607605 73.180969,113.896507 74.141708,116.383926 
	C75.180206,119.072647 77.246017,120.229851 79.987984,120.088593 
	C82.578331,119.955139 84.583870,118.282349 85.158043,116.050690 
	C85.678909,114.026215 86.422096,111.107651 82.524590,109.789703 
	C83.893433,112.502632 84.657227,114.856705 82.136803,117.569946 
M124.169540,146.159546 
	C132.292328,148.646225 139.524826,146.755417 145.868134,141.411148 
	C148.188675,139.456070 149.505264,136.832474 147.921967,133.212814 
	C143.574203,144.165848 140.902283,144.380356 128.862595,145.261536 
	C119.520683,145.945251 116.580238,143.499237 113.570976,135.625732 
	C111.721077,137.579727 112.175301,139.292496 113.537392,140.946808 
	C116.079224,144.033920 119.221344,146.030838 124.169540,146.159546 
M119.604782,97.588455 
	C113.336334,103.161682 112.297958,109.611893 116.944191,116.468575 
	C118.691887,119.047737 117.790131,120.606018 116.143982,122.573242 
	C113.074142,126.241859 113.389450,129.160568 116.866531,131.813293 
	C116.417938,125.215240 116.417938,125.215240 120.180336,118.596313 
	C113.860443,109.393639 113.883942,108.736717 121.072762,98.880997 
	C122.057213,97.531326 121.602127,97.175415 119.604782,97.588455 
M154.183701,84.555115 
	C154.012833,87.556313 155.251404,89.669579 158.157578,90.616875 
	C162.011581,91.873108 165.374893,90.024010 166.635880,86.031242 
	C167.535614,83.182358 165.048248,79.074295 161.755096,77.970291 
	C158.672546,76.936897 155.598907,79.299644 154.183701,84.555115 
M166.922577,108.978065 
	C166.640930,107.428261 167.407837,105.633293 165.898697,104.329361 
	C159.523438,110.996025 159.589325,118.107910 166.223663,120.078598 
	C167.723495,116.752838 166.634872,113.233261 166.922577,108.978065 
M177.028412,111.581772 
	C176.842163,108.933731 176.932419,106.227875 176.394165,103.653427 
	C175.822662,100.919800 174.051697,99.629379 169.866409,101.357719 
	C174.329300,101.998474 174.530746,104.187416 174.409988,106.973030 
	C174.168671,112.540054 173.901443,118.175209 177.014557,123.461700 
	C177.014557,119.822365 177.014557,116.183029 177.028412,111.581772 
M143.402802,101.536011 
	C142.166031,102.299515 142.029617,103.278648 143.076553,104.876556 
	C144.185791,103.558647 145.761154,103.175888 147.197052,102.498344 
	C148.811478,101.736565 148.800766,100.110703 148.715302,98.590309 
	C148.639664,97.244667 147.895920,96.386642 146.525101,96.368637 
	C142.834488,96.320168 139.142853,96.352066 135.451614,96.352066 
	C138.077469,98.216324 140.790604,97.511909 143.470444,97.490677 
	C144.771027,97.480370 146.378754,97.405861 146.670349,99.122040 
	C146.994980,101.032585 145.311172,101.049225 143.402802,101.536011 
M62.689106,104.363541 
	C61.841946,103.555313 61.861938,101.747231 59.564705,102.069878 
	C64.507866,108.869263 61.120960,116.491089 62.427353,123.671021 
	C64.531830,117.515007 64.253059,111.285576 62.689106,104.363541 
M125.647293,139.185181 
	C123.094124,139.190826 122.112366,137.067184 120.617279,134.492935 
	C121.016693,139.722885 124.069794,141.804764 127.191429,139.960388 
	C127.027229,139.735748 126.888611,139.483368 126.687912,139.298294 
	C126.589218,139.207291 126.375580,139.240936 125.647293,139.185181 
z"/>
<path fill="#000000" opacity="1.000000" stroke="none" 
	d="
M61.539127,152.688782 
	C57.189919,150.721756 54.493320,147.866058 53.964405,142.160080 
	C60.378391,146.907150 66.202469,154.177017 74.337448,145.119827 
	C70.717712,149.379242 67.488640,153.079865 61.539127,152.688782 
z"/>
<path fill="#000000" opacity="1.000000" stroke="none" 
	d="
M184.783142,133.950348 
	C184.065964,132.621597 184.779938,132.200974 185.663986,132.129639 
	C189.715057,131.802643 193.431198,130.257050 197.442993,129.472839 
	C193.434937,131.413513 190.123138,134.964096 184.783142,133.950348 
z"/>
<path fill="#000000" opacity="1.000000" stroke="none" 
	d="
M82.142982,91.329361 
	C86.382439,91.941292 87.920097,93.356216 91.028206,99.946648 
	C86.476204,97.706505 84.324623,94.615982 82.142982,91.329361 
z"/>
<path fill="#000000" opacity="1.000000" stroke="none" 
	d="
M45.393295,136.613663 
	C44.009491,134.532501 41.263355,133.915665 40.892258,130.980515 
	C45.654690,131.493134 46.789173,135.766113 50.153324,138.184113 
	C47.798466,139.146805 46.703316,138.008148 45.393295,136.613663 
z"/>
<path fill="#000000" opacity="1.000000" stroke="none" 
	d="
M159.550720,80.971375 
	C162.560272,80.492424 164.662598,81.181313 164.711014,84.220802 
	C164.748138,86.550522 163.268738,88.341118 161.012207,88.842072 
	C158.931107,89.304092 157.024506,88.436119 156.330582,86.220512 
	C155.516129,83.620209 156.316544,81.700844 159.550720,80.971375 
z"/>
</svg>