<svg version="1.1" id="Layer_1" xmlns="http://www.w3.org/2000/svg" xmlns:xlink="http://www.w3.org/1999/xlink" x="0px" y="0px"
	 width="100%" viewBox="0 0 500 500" enable-background="new 0 0 500 500" xml:space="preserve">
<path fill="#000000" opacity="1.000000" stroke="none" 
	d="
M243.000000,501.000000 
	C162.350815,501.000000 81.701637,501.000000 1.026231,501.000000 
	C1.026231,334.386963 1.026231,167.773911 1.026231,1.080426 
	C167.576874,1.080426 334.153809,1.080426 500.865356,1.080426 
	C500.865356,167.666595 500.865356,334.333282 500.871552,501.000000 
	C420.228516,501.000000 339.579254,501.000000 258.208374,500.650970 
	C258.152039,499.877441 258.763611,499.255310 259.490570,499.057739 
	C273.629120,495.215546 287.798706,491.486969 301.926605,487.606537 
	C329.244507,480.103149 356.540192,472.518951 383.845795,464.970825 
	C387.614380,463.929047 392.558563,463.990723 394.821808,461.555664 
	C397.000763,459.211334 396.410553,454.292786 397.034424,450.504822 
	C397.061401,450.340973 397.060272,450.172668 397.076263,450.006805 
	C398.383820,436.435699 399.745209,422.869507 400.980621,409.291840 
	C401.771271,400.601929 402.296600,391.887848 403.082489,383.197449 
	C404.325928,369.448090 405.745972,355.714630 406.979156,341.964417 
	C407.773438,333.108002 408.244629,324.222107 409.079773,315.370056 
	C410.282074,302.626404 411.798370,289.912018 412.962250,277.165192 
	C413.831360,267.646820 414.191101,258.081818 415.069061,248.564453 
	C416.592987,232.044357 418.379669,215.548676 419.983856,199.035736 
	C421.048798,188.073593 422.057343,177.104996 422.967072,166.128983 
	C424.367615,149.230972 425.630951,132.321609 427.019043,115.422523 
	C427.458069,110.077393 428.109863,104.749741 428.683655,99.227852 
	C310.164337,99.227852 191.735657,99.227852 73.377266,99.227852 
	C74.597672,113.175018 75.836281,126.899673 76.986839,140.631714 
	C77.743431,149.661743 78.251022,158.713730 79.088661,167.735611 
	C80.287735,180.650330 81.789032,193.537186 82.965569,206.453751 
	C83.817551,215.807098 84.249863,225.198151 85.051491,234.556763 
	C86.285957,248.968445 87.693008,263.365234 88.994476,277.771301 
	C89.720016,285.802368 90.314423,293.845612 91.084610,301.872162 
	C92.339409,314.949066 93.787994,328.007904 94.966667,341.091339 
	C95.809525,350.447205 96.174240,359.846893 97.054649,369.198547 
	C98.578606,385.386047 100.474686,401.538879 101.954231,417.730072 
	C103.168030,431.013184 104.008713,444.330444 105.001793,457.633575 
	C105.189209,460.144196 105.968391,461.436340 108.920853,462.202179 
	C124.981392,466.367889 140.920090,471.001831 156.912598,475.431702 
	C184.186371,482.986450 211.476593,490.482025 238.728058,498.116211 
	C240.298096,498.556030 241.582611,500.015228 243.000000,501.000000 
z"/>
<path fill="#E44D26" opacity="1.000000" stroke="none" 
	d="
M243.466125,501.000000 
	C241.582611,500.015228 240.298096,498.556030 238.728058,498.116211 
	C211.476593,490.482025 184.186371,482.986450 156.912598,475.431702 
	C140.920090,471.001831 124.981392,466.367889 108.920853,462.202179 
	C105.968391,461.436340 105.189209,460.144196 105.001793,457.633575 
	C104.008713,444.330444 103.168030,431.013184 101.954231,417.730072 
	C100.474686,401.538879 98.578606,385.386047 97.054649,369.198547 
	C96.174240,359.846893 95.809525,350.447205 94.966667,341.091339 
	C93.787994,328.007904 92.339409,314.949066 91.084610,301.872162 
	C90.314423,293.845612 89.720016,285.802368 88.994476,277.771301 
	C87.693008,263.365234 86.285957,248.968445 85.051491,234.556763 
	C84.249863,225.198151 83.817551,215.807098 82.965569,206.453751 
	C81.789032,193.537186 80.287735,180.650330 79.088661,167.735611 
	C78.251022,158.713730 77.743431,149.661743 76.986839,140.631714 
	C75.836281,126.899673 74.597672,113.175018 73.377266,99.227852 
	C191.735657,99.227852 310.164337,99.227852 428.683655,99.227852 
	C428.109863,104.749741 427.458069,110.077393 427.019043,115.422523 
	C425.630951,132.321609 424.367615,149.230972 422.967072,166.128983 
	C422.057343,177.104996 421.048798,188.073593 419.983856,199.035736 
	C418.379669,215.548676 416.592987,232.044357 415.069061,248.564453 
	C414.191101,258.081818 413.831360,267.646820 412.962250,277.165192 
	C411.798370,289.912018 410.282074,302.626404 409.079773,315.370056 
	C408.244629,324.222107 407.773438,333.108002 406.979156,341.964417 
	C405.745972,355.714630 404.325928,369.448090 403.082489,383.197449 
	C402.296600,391.887848 401.771271,400.601929 400.980621,409.291840 
	C399.745209,422.869507 398.383820,436.435699 397.076263,450.006805 
	C397.060272,450.172668 397.061401,450.340973 397.034424,450.504822 
	C396.410553,454.292786 397.000763,459.211334 394.821808,461.555664 
	C392.558563,463.990723 387.614380,463.929047 383.845795,464.970825 
	C356.540192,472.518951 329.244507,480.103149 301.926605,487.606537 
	C287.798706,491.486969 273.629120,495.215546 259.490570,499.057739 
	C258.763611,499.255310 258.152039,499.877441 257.743378,500.650970 
	C253.310745,501.000000 248.621490,501.000000 243.466125,501.000000 
M250.256607,377.895355 
	C235.334961,373.912689 220.429825,369.866119 205.477600,366.001740 
	C202.522629,365.238068 200.958252,364.155273 200.926056,360.755157 
	C200.878952,355.779297 200.246628,350.805389 199.784851,345.837982 
	C199.281723,340.425781 198.688522,335.021942 198.137314,329.640869 
	C183.134415,329.640869 168.723450,329.640869 154.434448,329.640869 
	C154.257294,330.108765 154.137314,330.267365 154.149948,330.414612 
	C156.052429,352.602448 157.922028,374.793457 160.004349,396.964478 
	C160.106155,398.048553 161.919098,399.507599 163.195709,399.867065 
	C192.450974,408.104950 221.742508,416.214081 251.006516,425.240784 
	C251.005310,438.234619 250.975418,451.228516 251.016235,464.222229 
	C251.033951,469.866302 251.400116,470.104584 256.696320,468.631836 
	C289.907990,459.396393 323.113434,450.138641 356.332367,440.929504 
	C367.949707,437.708923 367.951813,437.761047 369.103851,425.578827 
	C369.322906,423.262451 369.769928,420.966858 369.969421,418.649445 
	C371.409241,401.925476 372.743530,385.192139 374.244873,368.473785 
	C376.087982,347.950195 378.121643,327.443695 379.958923,306.919586 
	C381.455505,290.200745 382.692352,273.458557 384.211090,256.741821 
	C386.030396,236.716385 388.117798,216.715210 389.921265,196.688400 
	C391.784485,175.997757 393.231445,155.266937 395.351929,134.604111 
	C395.862732,129.626587 394.169495,128.950394 390.059113,128.957047 
	C345.747040,129.028793 301.434631,129.061798 257.122925,128.917603 
	C252.186325,128.901550 250.840393,130.768723 250.925537,135.397675 
	C251.155258,147.887558 251.013092,160.384293 250.095825,173.057480 
	C213.518143,173.057480 176.940445,173.057480 139.665527,173.057480 
	C143.731323,218.065414 147.735321,262.389282 151.772629,307.081879 
	C154.051804,307.081879 155.862167,307.081879 157.672546,307.081879 
	C181.479507,307.081879 205.286514,307.058105 229.093430,307.096100 
	C236.408432,307.107788 243.723160,307.288483 251.015503,308.279175 
	C251.019791,331.451660 251.024063,354.624115 250.256607,377.895355 
z"/>
<path fill="#F16529" opacity="1.000000" stroke="none" 
	d="
M251.018509,172.878311 
	C251.013092,160.384293 251.155258,147.887558 250.925537,135.397675 
	C250.840393,130.768723 252.186325,128.901550 257.122925,128.917603 
	C301.434631,129.061798 345.747040,129.028793 390.059113,128.957047 
	C394.169495,128.950394 395.862732,129.626587 395.351929,134.604111 
	C393.231445,155.266937 391.784485,175.997757 389.921265,196.688400 
	C388.117798,216.715210 386.030396,236.716385 384.211090,256.741821 
	C382.692352,273.458557 381.455505,290.200745 379.958923,306.919586 
	C378.121643,327.443695 376.087982,347.950195 374.244873,368.473785 
	C372.743530,385.192139 371.409241,401.925476 369.969421,418.649445 
	C369.769928,420.966858 369.322906,423.262451 369.103851,425.578827 
	C367.951813,437.761047 367.949707,437.708923 356.332367,440.929504 
	C323.113434,450.138641 289.907990,459.396393 256.696320,468.631836 
	C251.400116,470.104584 251.033951,469.866302 251.016235,464.222229 
	C250.975418,451.228516 251.005310,438.234619 251.015625,424.683319 
	C251.024750,424.125854 250.982285,423.908569 251.372894,423.931519 
	C280.127289,416.088837 308.470367,408.146576 336.880493,400.451996 
	C340.537262,399.461609 341.815155,398.012970 342.139587,394.163330 
	C344.810944,362.467621 347.778015,330.796844 350.628693,299.116119 
	C351.697754,287.235443 352.696014,275.348389 353.728180,263.445160 
	C352.879852,263.229553 352.408234,263.004395 351.936859,263.004913 
	C318.282410,263.041412 284.627991,263.095825 251.002625,263.053436 
	C251.031662,262.958099 251.036087,262.758850 251.028656,262.305359 
	C251.001282,247.214371 250.981339,232.576843 250.982254,217.764008 
	C251.003113,217.588684 250.941147,217.241074 251.399017,217.360809 
	C287.084076,217.480560 322.311279,217.480560 357.815002,217.480560 
	C359.202942,202.467590 360.539856,188.006699 361.915558,173.126221 
	C358.430817,173.126221 355.621643,173.121597 352.812439,173.126938 
	C318.860321,173.191544 284.908203,173.257599 250.984070,173.213776 
	C251.012054,173.104263 251.018509,172.878311 251.018509,172.878311 
z"/>
<path fill="#EBE9E9" opacity="1.000000" stroke="none" 
	d="
M251.038025,307.391785 
	C243.723160,307.288483 236.408432,307.107788 229.093430,307.096100 
	C205.286514,307.058105 181.479507,307.081879 157.672546,307.081879 
	C155.862167,307.081879 154.051804,307.081879 151.772629,307.081879 
	C147.735321,262.389282 143.731323,218.065414 139.665527,173.057480 
	C176.940445,173.057480 213.518143,173.057480 250.557159,172.967896 
	C251.018509,172.878311 251.012054,173.104263 250.997040,173.661682 
	C250.968399,188.559753 250.954773,202.900406 250.941147,217.241074 
	C250.941147,217.241074 251.003113,217.588684 250.530426,217.641541 
	C229.655884,217.694412 209.254028,217.694412 188.370483,217.694412 
	C189.745056,233.075027 191.056778,247.752396 192.397903,262.758850 
	C212.201370,262.758850 231.618729,262.758850 251.036087,262.758850 
	C251.036087,262.758850 251.031662,262.958099 251.002762,263.512695 
	C250.977753,278.351227 250.981644,292.635101 251.011108,307.035828 
	C251.036667,307.152618 251.038025,307.391785 251.038025,307.391785 
z"/>
<path fill="#EBEAE9" opacity="1.000000" stroke="none" 
	d="
M251.026001,424.236542 
	C221.742508,416.214081 192.450974,408.104950 163.195709,399.867065 
	C161.919098,399.507599 160.106155,398.048553 160.004349,396.964478 
	C157.922028,374.793457 156.052429,352.602448 154.149948,330.414612 
	C154.137314,330.267365 154.257294,330.108765 154.434448,329.640869 
	C168.723450,329.640869 183.134415,329.640869 198.137314,329.640869 
	C198.688522,335.021942 199.281723,340.425781 199.784851,345.837982 
	C200.246628,350.805389 200.878952,355.779297 200.926056,360.755157 
	C200.958252,364.155273 202.522629,365.238068 205.477600,366.001740 
	C220.429825,369.866119 235.334961,373.912689 250.640793,377.941772 
	C251.024979,377.988190 250.971222,378.172089 250.973053,378.629944 
	C250.977341,394.028076 250.979813,408.968323 250.982285,423.908569 
	C250.982285,423.908569 251.024750,424.125854 251.026001,424.236542 
z"/>
<path fill="#F1662B" opacity="1.000000" stroke="none" 
	d="
M251.026657,377.892395 
	C251.024063,354.624115 251.019791,331.451660 251.026764,307.835480 
	C251.038025,307.391785 251.036667,307.152618 251.470139,307.138733 
	C269.501038,307.124817 287.098450,307.124817 304.880432,307.124817 
	C305.004364,308.482452 305.197479,309.282990 305.130768,310.061249 
	C303.654114,327.295624 302.093964,344.523102 300.700134,361.764069 
	C300.453156,364.819031 298.617249,365.407867 296.214966,366.042023 
	C281.118408,370.027374 266.049377,374.116974 250.971222,378.172089 
	C250.971222,378.172089 251.024979,377.988190 251.026657,377.892395 
z"/>
<path fill="#FFFEFE" opacity="1.000000" stroke="none" 
	d="
M250.973053,378.629944 
	C266.049377,374.116974 281.118408,370.027374 296.214966,366.042023 
	C298.617249,365.407867 300.453156,364.819031 300.700134,361.764069 
	C302.093964,344.523102 303.654114,327.295624 305.130768,310.061249 
	C305.197479,309.282990 305.004364,308.482452 304.880432,307.124817 
	C287.098450,307.124817 269.501038,307.124817 251.444580,307.021912 
	C250.981644,292.635101 250.977753,278.351227 250.973724,263.608032 
	C284.627991,263.095825 318.282410,263.041412 351.936859,263.004913 
	C352.408234,263.004395 352.879852,263.229553 353.728180,263.445160 
	C352.696014,275.348389 351.697754,287.235443 350.628693,299.116119 
	C347.778015,330.796844 344.810944,362.467621 342.139587,394.163330 
	C341.815155,398.012970 340.537262,399.461609 336.880493,400.451996 
	C308.470367,408.146576 280.127289,416.088837 251.372894,423.931519 
	C250.979813,408.968323 250.977341,394.028076 250.973053,378.629944 
z"/>
<path fill="#FFFFFF" opacity="1.000000" stroke="none" 
	d="
M251.399017,217.360809 
	C250.954773,202.900406 250.968399,188.559753 250.969055,173.771179 
	C284.908203,173.257599 318.860321,173.191544 352.812439,173.126938 
	C355.621643,173.121597 358.430817,173.126221 361.915558,173.126221 
	C360.539856,188.006699 359.202942,202.467590 357.815002,217.480560 
	C322.311279,217.480560 287.084076,217.480560 251.399017,217.360809 
z"/>
<path fill="#E44E27" opacity="1.000000" stroke="none" 
	d="
M251.028656,262.305359 
	C231.618729,262.758850 212.201370,262.758850 192.397903,262.758850 
	C191.056778,247.752396 189.745056,233.075027 188.370483,217.694412 
	C209.254028,217.694412 229.655884,217.694412 250.509583,217.816864 
	C250.981339,232.576843 251.001282,247.214371 251.028656,262.305359 
z"/>
</svg>